<svg id="Layer_1" data-name="Layer 1" xmlns="http://www.w3.org/2000/svg" viewBox="0 0 1116.392 234.595">
  <defs>
    <style>
      .cls-1 {
        fill: #1da1f2;
      }
    </style>
  </defs>
  <title>LogoVetor</title>
  <g id="Camada_2" data-name="Camada 2">
    <g>
      <path class="cls-1" d="M666.231,68.6c13-3,15-24,15-24,3-14-12-15-12-15-19-3-19,13-19,13-2,6,3,18,3,18A13.128,13.128,0,0,0,666.231,68.6Z" transform="translate(0 -0.005)"/>
      <path class="cls-1" d="M1113.231,188.6l-6,6c-10,10-14,2-14,2-9-34,7-101,7-101,2-6-1-8-1-8l-13-6c-7-3-10,1-10,1l-7,12c-16-18-30-9-30-9-24,12-29,47-29,47-7,35,3,55,3,55-19,22-22,3-22,3-6-26,11-87,11-87,2-5,0-11,0-11l-11-10c-4-3-5-1-5-1-23,19-31,13-31,13,5-9,0-29,0-29-2-13-13-1-13-1a33.8,33.8,0,0,0-12,24c-3,19,12,23,12,23-7,68-24,88-24,88-4,0-5-9-5-9-3-56,10-100,10-100,1-5-1-7-1-7l-17-6c-5-1-9,8-9,8l-6,30c-8,45-18,67-18,67-8,20-13-1-13-1-3-39,11-85,11-85,2-4,1-5,1-5-3-5-17-5-17-5-7,0-8,4-8,4-25,55-14,98-14,98-15,19-19-6-19-6-6-26,4-108,4-108,1-11,3-15,3-15,37-4,64-5,64-5,6,0,7-4,7-4,0-2-4-3-4-3a12.121,12.121,0,0,1-5-1c-20-16-22-13-22-13h-29c-9,3-7-2-7-2l6-22c1-3-1-3-1-3l-21-2c-4,0-4,2-4,2-2,5-9,32-9,32h-23c-24,1-28-6-28-6a1.385,1.385,0,0,0-1.958-.042l-.042.042c-2,32,48,30,48,30l3,2c-3,15-6,71-6,71v10c0,15,2,40,2,40-25,34-24-3-24-3,0-21,11-79,11-79,3-8,0-11,0-11l-13-11a9.736,9.736,0,0,0-9,1c-9,6-18,23-18,23-14,23-24,52-24,52-4,5-4-1-4-1l3-32c3-23,12-60,12-60,2-6-7-4-7-4l-5,2c-19,5-21,24-21,24l-3,60v32c-11,29-21,6-21,6s-.105.045-.279.127a70.157,70.157,0,0,1-1.721-12.127v-6l5-54c3-6,0-10,0-10l-11-10c-6-5-12,4-12,4-5,6-8,41-8,41-3,29,4,66,4,66,6,13,17,12,17,12,16-1,25-15,25-15,0,7,16,6,16,6,5,0,8-10,8-10,23-63,39-83,39-83,4,0,0,8,0,8l-7,36c-4,22,2,42,2,42,6,17,23,15,23,15,10,0,26-22,26-22l4,11c7,15,19,12,19,12,12-1,21-20,21-20,7,24,26,21,26,21,16,0,24-29,24-29,1-4,3-1,3-1,4,25,16,27,16,27h10c22-8,29-37,29-37,9-23,12-65,12-65,8,1,18-5,18-5,2-1,2,2,2,2-2,3-10,37-10,37-7,30,1,51,1,51,6,22,23,19,23,19,12-1,25-23,25-23,10,19,24,16,24,16,19-2,24-35,24-35,1-5,3,0,3,0l2,21c3,19,15,19,15,19h7c13,0,27-23,27-23C1117.231,185.6,1113.231,188.6,1113.231,188.6Zm-49-72s-12,72-22,72c0,0-7,1-8-12,0,0-3-41,16-77,0,0,3-4,8,0C1058.231,99.6,1066.231,104.6,1064.231,116.6Z" transform="translate(0 -0.005)"/>
      <path class="cls-1" d="M565.231.6s-36-5-77,14c0,0-34,18-31,41,0,0,0,12,15,11a1.958,1.958,0,0,0,2-1.917c0-.028,0-.055,0-.083,0,0,0-21,25-31,0,0,18-12,68-15,0,0,53,0,55,41,0,0,5,52-78,59h-2s3-57,9-87c0,0,1-3-5-2,0,0-10,3-15,9,0,0-4,2-12,78,0,0-4,5-27-6,0,0-2,0-1,5,0,0-4,13,25,25l-3,49v20s0,25,19,25c0,0,7,0,7-3v-2a13.834,13.834,0,0,1-2-7v-36l3-43a.979.979,0,0,1,.958-1h.042s98,5,105-68C646.231,74.6,651.231,8.6,565.231.6Z" transform="translate(0 -0.005)"/>
    </g>
  </g>
  <g id="Camada_5" data-name="Camada 5">
    <g id="Camada_4" data-name="Camada 4">
      <g>
        <path class="cls-1" d="M184.231,215.6c-6-10-11-59-2-104a475.05,475.05,0,0,1,13-55l2-7s1-3-2-7l-9-9-3-2s-4-1-6,1c0,0-49,42-86,140,0,0,0-62,17-140v-12s.135-.274-.146-.82C106.436,14.4,90.231,3.6,90.231,3.6s-11-2-23,6c0,0-46,27-63,92,0,0-8,34-2,50,0,0,8,32,40,17,0,0-24,3-18-36,0,0,14-107,57-113,0,0,5,0,2,16,0,0-15,68-21,153,0,0-6,40,23,38,0,0,36-105,80-161,0,0,4-3,1,5,0,0-14,26-16,124,0,0-1,37,26,36a124,124,0,0,0,21-2s4-1,0-5C197.231,223.6,190.231,225.6,184.231,215.6Z" transform="translate(0 -0.005)"/>
        <path class="cls-1" d="M479.231,188.6s-10,12-16,12c0,0-8,0-8-13,0,0-1-43,11-96,0,0,1-3-3-5l-12-5s-9-2-13,6l-3,8s-10-12-20-11h-4s-24,3-33,37l-2,10s-12-2-12-5l4-30v-18s-2-5-7-4c0,0-14,0-25,26,0,0-7,24,8,33l1,1s-13,56-25,58c0,0-10,4-10-42v-38s1-29-13-29h-6s-5-1-26,16h-1s-13-18-26-17a17.493,17.493,0,0,0-17,11s-36,15-33,70c0,0,2,49,41,46,0,0,41,2,43-76a91.259,91.259,0,0,0-3-20l11-9s4-4,4,4v65s4,39,27,39c0,0,25,9,50-75,0,0,5,1,13-1h1v4l-1,2v21s1,44,26,44h5s15,1,24-37h1s0,43,17,43h9s17-7,25-23v-2Zm-243-90s1.672-2.323,4-2c1.59.22,3.16,2.159,6,5,0,0,3,3,1,6-.542.813-1,1-4,1,0,0-8,0-9-5a7.813,7.813,0,0,1,2-5Zm16,49c-6,41-20,41-20,41h-2c-13,1-14-29-14-29-1-27,10-45,10-45,9,9,26,6,26,6v1c2,9,0,26,0,26Zm178-32s-12,72-22,72c0,0-7,1-8-12,0,0-3-41,16-77,0,0,3-4,8,0C424.231,98.6,432.231,103.6,430.231,115.6Z" transform="translate(0 -0.005)"/>
      </g>
    </g>
  </g>
</svg>
