<svg id="Capa_1" enable-background="new 0 0 511.992 511.992" height="512" viewBox="0 0 511.992 511.992" width="512" xmlns="http://www.w3.org/2000/svg"><path d="m491.544 154.705c-4.498-1.254-9.049-1.321-13.325-.402l7.073-25.388c5.553-19.936-12.789-39.379-33.087-34.748 2.113-17.049-12.257-32.301-29.37-31.286-15.428.916-23.096 12.519-26.864 26.043-15.015-14.109-40.523-6.901-46.037 12.895l-42.642 153.208c-.275.993-1.697 1.023-2.01.036l-15.188-47.898c-3.513-11.02-13.265-18.35-24.118-19.342l2.368-5.146c6.391-14.021.183-30.626-13.838-37.018-13.898-6.334-30.703-.013-37.021 13.849l-20.761 45.746c-.429.942-1.835.751-1.992-.274l-24.154-157.188c-3.124-20.304-27.593-30.498-44.181-18.267-2.123-13.794-8.197-26.232-23.387-29.057-16.91-3.146-33.164 10.319-33.076 27.566-19.598-6.99-40.12 10.147-36.973 30.594l4.006 26.029c-19.52-6.685-39.777 10.345-36.644 30.706l23.553 153.045c3.486 22.655 10.838 44.301 21.859 64.371l-3.997 96.454c-.447 10.796 9.415 19.677 20.147 18.021l169.307-26.055c10.936-1.683 17.727-13.529 13.568-23.841l-35.124-87.103 32.329-70.257 38.027 117.79-45.216 82.316c-5.349 9.738-.022 22.312 10.642 25.284l165.017 45.97c10.438 2.909 21.304-4.696 22.144-15.501l7.482-96.247c13.325-18.619 23.195-39.239 29.346-61.32l7.598-27.272c2.585-9.277-11.861-13.315-14.45-4.025l-7.598 27.272c-5.857 21.027-15.366 40.617-28.262 58.228-.824 1.126-1.318 2.459-1.426 3.85l-4.615 59.365-153.8-42.846 27.842-50.687c.994-1.81 1.198-3.95.563-5.915l-44.124-136.673c-5.025-15.76 19.59-23.782 24.661-7.875l15.184 47.887c4.715 14.867 26.579 14.474 30.76-.547l42.64-153.207c4.413-15.833 29.5-9.431 24.939 6.947l-36.659 131.594c-2.584 9.277 11.861 13.315 14.45 4.025l36.659-131.593v-.001l8.229-29.54c4.411-15.834 29.502-9.43 24.938 6.947l-44.889 161.134c-2.685 9.641 11.903 13.169 14.45 4.025l39.402-141.44c4.48-16.077 29.418-9.131 24.939 6.947l-13.713 49.224c-.001.004-.003.008-.004.012l-25.686 92.205c-2.583 9.275 11.853 13.345 14.45 4.025l25.69-92.219c4.496-16.062 29.411-9.107 24.934 6.962l-21.422 76.895c-2.584 9.277 11.861 13.316 14.45 4.025l21.422-76.895c4.14-14.845-4.572-30.285-19.415-34.419zm-72.073 316.243-1.846 23.746c-.121 1.557-1.658 2.636-3.163 2.214l-165.017-45.97c-1.542-.429-2.29-2.21-1.52-3.612l11.513-20.96zm-224.956-158.084 21.628 53.634-24.289 3.738c-9.498 1.461-7.252 16.296 2.281 14.825l27.77-4.274 8.944 22.179c.599 1.484-.357 3.163-1.938 3.406l-169.308 26.057c-1.544.239-2.943-1.014-2.878-2.574l.986-23.798 90.424-13.915c9.518-1.464 7.249-16.298-2.281-14.825l-87.51 13.467 2.465-59.493c.058-1.394-.274-2.776-.959-3.992-10.713-19.016-17.829-39.597-21.149-61.17l-23.553-153.048c-2.54-16.506 23.04-20.448 25.586-3.943l14.56 94.607c1.397 9.089 16.405 7.98 14.825-2.281l-14.559-94.602c-.001-.004-.001-.007-.002-.011l-7.772-50.505c-2.538-16.496 23.049-20.433 25.587-3.938l22.333 145.118c1.397 9.091 16.405 7.976 14.825-2.281l-25.442-165.324c-2.541-16.509 23.046-20.446 25.587-3.938l25.442 165.324c1.465 9.521 16.293 7.25 14.825-2.281l-20.777-135.015c-2.541-16.508 23.048-20.447 25.587-3.939l24.152 157.187c2.37 15.418 24.024 18.415 30.478 4.195l20.756-45.735c6.912-15.169 30.508-4.514 23.567 10.712-2.276 4.946-6.342 10.788-7.131 16.242-8.126 5.629-12.746 15.271-11.948 25.221l-40.968 89.031c-.865 1.875-.916 4.024-.144 5.939z"/></svg>